<?xml version="1.0" standalone="no"?>
<!DOCTYPE svg PUBLIC "-//W3C//DTD SVG 20010904//EN"
 "http://www.w3.org/TR/2001/REC-SVG-20010904/DTD/svg10.dtd">
<svg version="1.0" xmlns="http://www.w3.org/2000/svg"
 width="1536.000000pt" height="1024.000000pt" viewBox="0 0 1536.000000 1024.000000"
 preserveAspectRatio="xMidYMid meet">

<g transform="translate(0.000000,1024.000000) scale(0.100000,-0.100000)"
fill="#000000" stroke="none">
<path d="M7296 9769 c-33 -26 -37 -86 -6 -114 51 -46 130 -10 130 59 0 37 -7
49 -37 65 -32 16 -57 14 -87 -10z"/>
<path d="M5615 9635 c-22 -7 -73 -23 -113 -35 -65 -18 -73 -24 -70 -43 3 -18
11 -23 53 -27 l50 -5 -1 -90 c-1 -142 -15 -365 -23 -365 -3 0 -31 33 -61 73
-131 174 -190 263 -190 284 0 17 10 28 35 40 34 16 43 35 27 60 -6 10 -44 2
-158 -33 -82 -25 -152 -49 -156 -52 -14 -14 4 -52 24 -52 33 0 57 -19 101 -80
l43 -59 -19 -113 c-33 -195 -15 -195 -155 0 -67 94 -122 175 -122 181 0 6 14
18 31 26 24 13 29 20 23 38 -3 12 -8 24 -10 26 -2 2 -66 -15 -142 -38 -75 -24
-143 -44 -149 -47 -15 -4 -17 -32 -5 -52 5 -7 16 -10 24 -7 27 11 82 -49 280
-302 186 -237 211 -262 235 -230 5 6 20 91 32 187 12 96 25 190 29 209 l7 34
29 -39 c17 -21 77 -99 135 -172 96 -121 108 -132 131 -127 14 4 26 8 27 9 1 1
7 51 13 111 34 356 63 601 71 617 5 10 19 22 30 28 23 13 23 54 -1 57 -8 1
-33 -4 -55 -12z"/>
<path d="M9159 9576 c-88 -31 -167 -120 -199 -223 -29 -96 -28 -231 4 -298 62
-132 209 -207 411 -209 l100 -1 29 89 c28 86 28 90 11 103 -27 19 -32 17 -59
-24 -52 -82 -108 -109 -188 -91 -68 15 -113 50 -145 115 -25 52 -28 68 -27
153 1 105 23 180 75 257 64 93 217 96 300 6 37 -39 49 -66 49 -106 0 -29 4
-35 25 -39 31 -6 31 -6 55 84 l20 73 -31 26 c-30 26 -127 68 -204 88 -54 15
-182 13 -226 -3z"/>
<path d="M7360 9549 c-137 -47 -141 -49 -138 -78 2 -20 8 -26 28 -26 l25 0 3
-115 c4 -152 -1 -176 -38 -189 -20 -7 -30 -17 -30 -31 0 -20 4 -20 133 -18
126 3 132 4 135 24 2 16 -4 24 -28 32 l-31 11 2 201 c1 111 0 203 -2 204 -2 2
-29 -5 -59 -15z"/>
<path d="M7628 9544 c-68 -22 -78 -28 -78 -48 0 -17 7 -26 27 -30 l26 -7 -6
-138 c-7 -156 -10 -169 -43 -182 -14 -5 -24 -17 -24 -29 0 -18 6 -20 58 -20
31 0 87 -3 125 -7 l67 -6 0 27 c0 19 -7 29 -26 37 l-27 10 7 91 c3 50 6 113 6
139 0 44 3 50 30 64 40 21 93 19 113 -3 18 -20 21 -102 8 -232 -5 -58 -9 -66
-33 -78 -17 -8 -28 -21 -28 -33 0 -16 7 -19 48 -19 27 0 83 -3 125 -6 l77 -7
0 25 c0 20 -7 27 -26 32 l-27 7 8 158 c8 191 1 220 -67 251 -59 27 -96 25
-164 -10 -32 -16 -60 -30 -61 -30 -2 0 -3 16 -3 35 0 42 -5 43 -112 9z"/>
<path d="M7070 9551 c-83 -6 -87 -8 -81 -40 0 -5 15 -12 31 -16 17 -4 30 -8
30 -10 0 -9 -74 -211 -80 -218 -7 -8 -100 182 -100 204 0 5 14 15 30 21 25 8
29 14 24 32 -4 11 -7 21 -8 22 0 1 -32 -2 -71 -7 -38 -4 -98 -8 -132 -8 -59
-1 -63 -3 -63 -24 0 -16 9 -26 29 -33 31 -12 96 -123 181 -306 42 -92 47 -98
75 -98 30 0 31 3 89 148 92 231 111 271 140 282 14 5 26 14 26 19 0 20 -13 41
-24 39 -6 -1 -49 -4 -96 -7z"/>
<path d="M8259 9493 c-114 -59 -135 -196 -40 -275 l29 -25 -49 -21 c-43 -18
-49 -24 -49 -50 0 -34 34 -82 58 -82 9 0 -5 -12 -33 -25 -62 -30 -85 -57 -85
-99 0 -123 342 -175 442 -68 37 39 48 65 48 111 0 71 -57 108 -210 140 -73 15
-88 25 -74 48 8 13 29 20 70 24 32 4 68 10 79 14 68 27 114 95 115 168 l0 37
45 0 c40 0 47 3 55 26 18 47 13 64 -20 64 -17 0 -47 -7 -67 -15 -34 -14 -38
-14 -57 4 -61 57 -170 67 -257 24z m152 -52 c49 -40 21 -193 -37 -207 -33 -8
-62 12 -73 52 -18 67 27 174 74 174 7 0 23 -9 36 -19z m-66 -471 c90 -21 125
-35 125 -49 0 -21 -38 -53 -74 -61 -48 -11 -132 3 -158 27 -22 20 -23 61 -1
85 19 22 5 22 108 -2z"/>
<path d="M6379 9496 c-95 -34 -149 -91 -149 -156 0 -60 39 -77 102 -44 28 14
30 19 24 54 -7 45 22 90 59 90 31 0 47 -22 52 -73 l5 -42 -72 -35 c-134 -65
-190 -144 -156 -223 17 -43 51 -67 93 -67 44 0 72 12 123 55 l44 36 13 -25
c25 -47 99 -47 160 0 47 35 43 69 -7 69 l-35 0 -8 70 c-24 223 -36 263 -87
290 -35 18 -112 19 -161 1z m103 -288 c5 -63 -18 -98 -64 -98 -61 0 -57 93 6
131 47 28 54 24 58 -33z"/>
<path d="M5864 9412 c-34 -17 -71 -43 -83 -60 -75 -106 -65 -259 23 -347 52
-51 100 -69 175 -63 78 6 128 32 162 87 49 76 33 114 -26 62 -66 -58 -138 -55
-197 8 -35 37 -57 85 -45 98 4 3 64 16 136 28 71 13 134 26 140 30 14 8 5 48
-21 95 -28 52 -77 81 -145 87 -50 4 -67 0 -119 -25z m124 -54 c5 -7 13 -23 16
-35 9 -28 -13 -40 -89 -49 l-58 -7 7 29 c14 55 33 74 75 74 21 0 43 -6 49 -12z"/>
<path d="M9765 9151 c-154 -71 -204 -276 -99 -400 63 -73 172 -105 266 -77
113 33 178 125 178 253 0 82 -18 129 -67 175 -69 65 -194 88 -278 49z m179
-70 c45 -50 39 -160 -16 -263 -34 -63 -73 -90 -117 -79 -30 8 -61 61 -61 107
0 67 54 205 94 236 28 23 79 23 100 -1z"/>
<path d="M3886 9039 c-20 -16 -26 -29 -26 -58 0 -46 22 -68 70 -73 30 -3 35
-7 38 -30 2 -16 -7 -46 -19 -68 -18 -32 -20 -43 -10 -53 10 -9 16 -7 32 13 44
56 53 84 54 163 0 74 -2 80 -28 103 -34 29 -76 31 -111 3z"/>
<path d="M10273 8936 c-61 -29 -106 -85 -128 -159 -28 -95 -14 -167 46 -232
97 -105 251 -117 351 -27 51 46 79 102 85 171 8 85 -11 138 -67 193 -81 78
-191 98 -287 54z m198 -75 c21 -16 24 -28 24 -79 -1 -48 -8 -74 -37 -134 -42
-84 -61 -105 -105 -114 -26 -5 -37 -1 -59 21 -25 25 -26 31 -22 93 9 121 78
232 144 232 17 0 42 -9 55 -19z"/>
<path d="M4335 8941 c-47 -12 -107 -46 -139 -80 -24 -25 -30 -41 -33 -88 -7
-107 44 -150 186 -160 87 -6 121 -22 121 -58 0 -29 -43 -65 -77 -65 -28 0 -74
22 -92 44 -16 19 -45 21 -59 4 -7 -9 -2 -30 15 -70 l26 -58 47 0 c88 0 181 48
221 114 24 39 25 110 1 156 -24 49 -72 70 -179 77 -48 3 -94 10 -100 16 -20
15 -16 65 6 77 29 15 87 12 101 -5 15 -18 44 -19 58 -2 8 9 3 25 -20 60 -32
49 -34 50 -83 38z"/>
<path d="M7072 8940 c-129 -19 -114 -7 -167 -136 -27 -63 -52 -117 -57 -120
-4 -3 -11 3 -15 13 -11 28 -64 116 -86 141 -25 27 -65 28 -127 2 -32 -13 -44
-23 -43 -36 1 -11 29 -98 62 -194 32 -96 89 -298 127 -447 37 -150 70 -273 74
-273 4 0 11 37 14 83 8 93 56 346 86 455 11 40 59 168 106 284 47 116 88 217
91 225 3 7 1 12 -3 12 -5 -1 -33 -5 -62 -9z"/>
<path d="M7444 8884 c48 -81 142 -342 176 -491 15 -67 41 -205 56 -307 16
-102 31 -186 34 -186 8 0 49 152 117 431 33 131 71 257 107 348 31 78 56 144
56 146 0 8 -97 35 -127 35 -29 0 -37 -6 -68 -54 -19 -30 -42 -73 -51 -95 -9
-22 -20 -39 -24 -36 -4 3 -27 51 -51 107 -59 142 -65 147 -173 155 l-87 6 35
-59z"/>
<path d="M10726 8723 c-5 -12 0 -24 15 -36 l22 -18 -114 -230 c-63 -127 -122
-240 -133 -251 -12 -13 -26 -18 -42 -14 -17 5 -26 1 -34 -15 -14 -25 -16 -23
40 -48 25 -11 78 -38 117 -60 71 -39 73 -40 84 -20 8 17 6 23 -15 40 -14 11
-26 26 -26 33 0 11 66 156 76 165 2 2 21 -12 42 -31 78 -71 177 -73 270 -5 87
63 147 206 123 295 -20 72 -98 122 -191 122 -55 0 -54 -1 -33 57 6 15 -17 20
-118 28 -68 6 -77 4 -83 -12z m227 -144 c64 -33 72 -87 26 -178 -52 -104 -134
-139 -198 -85 l-31 26 62 116 c34 65 66 120 72 124 16 11 44 10 69 -3z"/>
<path d="M6210 8670 c-98 -59 -149 -97 -157 -116 -3 -7 7 -28 22 -45 22 -27
95 -159 95 -173 0 -2 -40 9 -88 24 -165 53 -228 49 -287 -22 -38 -45 -32 -54
38 -67 233 -45 526 -204 646 -351 104 -128 151 -257 158 -435 3 -68 0 -145 -6
-178 -26 -141 -112 -257 -189 -257 -53 0 -86 35 -84 90 2 51 -20 54 -48 8 -25
-41 -19 -74 21 -110 25 -24 38 -28 90 -28 100 0 168 50 224 165 41 83 56 162
62 315 10 242 -20 411 -127 734 -54 162 -113 292 -186 416 -59 98 -68 100
-184 30z"/>
<path d="M8183 8686 c-91 -103 -271 -584 -319 -851 -26 -146 -26 -476 -1 -560
55 -178 142 -264 265 -265 48 0 58 4 88 34 37 37 42 62 19 105 -22 44 -71 58
-55 17 19 -52 -22 -116 -74 -116 -71 0 -137 76 -178 205 -31 96 -31 283 0 398
56 206 211 383 440 500 84 43 266 108 345 122 20 4 40 11 43 16 10 16 -83 97
-118 104 -40 8 -134 -8 -212 -35 -31 -10 -56 -17 -56 -16 0 16 40 93 75 143
l44 62 -37 33 c-47 42 -179 125 -213 133 -21 5 -31 0 -56 -29z"/>
<path d="M7172 8648 c-71 -146 -188 -466 -199 -543 l-6 -46 64 7 c72 7 89 18
114 74 l18 40 123 0 122 0 12 -34 c16 -50 37 -63 118 -70 l74 -7 -7 33 c-4 18
-29 94 -57 168 -27 74 -75 204 -106 288 l-56 152 -91 0 -92 0 -31 -62z m157
-210 c12 -54 21 -102 21 -108 0 -6 -28 -10 -66 -10 -49 0 -65 3 -61 13 2 6 19
61 37 120 20 64 36 103 41 95 4 -7 16 -57 28 -110z"/>
<path d="M3760 8639 c-39 -24 -55 -43 -86 -103 l-21 -40 -17 32 c-9 18 -20 32
-24 32 -8 0 -97 -90 -121 -122 -18 -25 2 -50 34 -42 19 5 28 -5 68 -73 25 -43
60 -109 79 -146 32 -66 32 -69 15 -82 -13 -9 -17 -20 -12 -35 8 -26 10 -26
130 45 85 50 94 58 85 76 -6 10 -21 19 -34 19 -31 0 -44 17 -111 139 l-56 104
18 34 c22 41 74 68 102 53 27 -14 59 -59 110 -151 45 -83 49 -104 26 -129 -12
-14 -13 -19 -1 -35 12 -17 19 -15 115 40 84 48 102 61 99 79 -2 17 -9 20 -33
18 -29 -3 -33 2 -90 105 -33 59 -81 129 -106 155 -41 43 -50 48 -90 48 -27 0
-57 -8 -79 -21z"/>
<path d="M11274 8376 c-27 -13 -67 -43 -87 -66 -41 -48 -77 -134 -77 -182 0
-154 171 -275 300 -210 48 23 53 52 9 52 -47 0 -118 38 -140 74 -30 49 -22
166 12 166 5 0 61 -30 124 -66 63 -36 119 -63 125 -59 18 11 40 76 40 116 0
50 -12 79 -52 124 -65 75 -161 94 -254 51z m176 -64 c25 -20 30 -63 10 -87
-17 -20 -24 -19 -71 10 -51 33 -59 53 -30 77 29 23 63 23 91 0z"/>
<path d="M3275 8341 c-164 -74 -194 -243 -69 -389 49 -57 132 -97 185 -88 119
19 217 133 207 238 -4 41 -33 51 -42 14 -3 -13 -18 -38 -32 -56 -66 -77 -154
-80 -223 -6 -15 16 -21 30 -15 35 5 4 57 41 117 80 66 45 107 79 107 90 0 24
-58 76 -99 90 -48 16 -90 13 -136 -8z m48 -70 c52 -20 40 -59 -31 -103 -34
-21 -35 -21 -48 -3 -21 28 -17 63 11 90 27 28 33 29 68 16z"/>
<path d="M11660 8129 c-9 -16 -8 -24 5 -39 15 -17 12 -24 -55 -123 -86 -128
-94 -135 -123 -118 -18 12 -22 11 -34 -5 -7 -10 -12 -21 -11 -25 2 -4 49 -44
106 -89 85 -67 105 -80 117 -70 20 17 19 34 -5 55 -11 10 -20 25 -20 34 0 14
78 135 129 200 26 34 64 22 96 -30 37 -57 52 -60 92 -14 60 69 35 116 -67 123
-33 2 -60 9 -60 14 0 5 7 20 16 34 23 34 11 44 -73 60 -92 18 -101 17 -113 -7z"/>
<path d="M5530 8090 c-59 -26 -150 -124 -150 -162 0 -18 40 -55 112 -105 l57
-40 -161 -32 c-247 -48 -272 -64 -388 -250 -58 -94 -150 -276 -150 -299 0 -19
17 -12 88 36 246 167 567 307 785 342 156 26 415 -6 544 -67 72 -33 154 -111
189 -178 45 -86 61 -62 63 91 2 199 -96 362 -299 499 -62 42 -235 110 -360
141 -107 28 -290 41 -330 24z"/>
<path d="M8737 8084 c-141 -31 -349 -117 -458 -190 -156 -103 -259 -280 -259
-445 0 -59 19 -169 29 -169 3 0 17 21 31 46 77 146 219 224 460 254 222 27
418 -9 677 -124 127 -57 196 -96 340 -196 91 -63 119 -77 121 -65 10 48 -199
400 -276 466 -50 42 -111 64 -242 85 -52 8 -112 19 -133 25 l-37 10 62 47 c86
66 104 92 89 130 -7 17 -34 54 -60 83 l-48 54 -114 2 c-72 1 -139 -3 -182 -13z"/>
<path d="M2868 8050 c-45 -24 -83 -73 -108 -137 -18 -47 -18 -47 -59 -44 -78
5 -150 -56 -166 -142 l-7 -38 -24 22 c-13 12 -29 19 -36 16 -7 -3 -33 -44 -57
-90 -38 -73 -43 -88 -31 -101 12 -15 15 -15 30 -1 9 8 21 15 26 15 10 0 103
-108 157 -182 30 -41 33 -59 16 -90 -9 -16 -8 -24 4 -36 14 -13 25 -6 106 68
50 46 91 86 91 90 0 16 -26 28 -50 24 -24 -5 -34 4 -105 93 -43 54 -82 103
-86 108 -11 15 26 91 51 105 36 19 65 4 122 -67 97 -121 103 -132 91 -164 -8
-21 -8 -32 2 -45 11 -16 21 -11 104 55 50 40 91 79 91 86 0 18 -20 30 -45 27
-23 -3 -47 20 -129 123 -31 39 -56 80 -56 92 0 33 57 93 88 93 31 0 78 -47
147 -148 43 -64 48 -76 37 -93 -9 -14 -10 -25 -2 -39 6 -11 13 -20 15 -20 3 0
44 30 92 67 49 37 90 68 91 69 2 1 1 12 -3 24 -6 17 -12 20 -35 15 -26 -6 -33
-1 -77 56 -164 214 -196 235 -285 189z"/>
<path d="M6945 7860 c-4 -7 -12 -65 -18 -129 -12 -143 1 -240 42 -301 35 -52
52 -64 150 -100 72 -26 81 -28 81 -12 0 9 -31 74 -70 142 -67 121 -84 170 -57
170 31 -1 109 -64 157 -129 l52 -70 23 33 c59 87 103 138 137 161 21 14 40 25
43 25 17 0 -3 -53 -65 -174 -38 -76 -70 -145 -70 -153 0 -17 19 -14 104 17 72
28 130 80 153 138 14 37 18 73 17 177 -1 72 -6 149 -13 172 l-11 42 -73 -20
c-93 -26 -170 -72 -216 -130 l-37 -46 -56 62 c-34 36 -80 74 -116 93 -68 36
-145 52 -157 32z"/>
<path d="M12002 7843 c-18 -9 -42 -28 -53 -42 l-21 -26 26 -22 c14 -12 42 -25
62 -29 30 -5 40 -2 63 20 33 31 52 33 76 6 21 -23 14 -41 -31 -93 -18 -21 -28
-26 -37 -19 -25 21 -169 72 -203 72 -43 0 -111 -59 -120 -105 -11 -61 79 -144
158 -145 l36 0 -5 -39 c-5 -33 -1 -44 20 -64 42 -42 134 -60 158 -31 11 14 10
18 -6 30 -10 8 -22 14 -27 14 -20 0 -3 28 73 122 130 162 141 201 77 273 -37
43 -85 69 -156 84 -63 13 -50 14 -90 -6z m18 -233 c22 -11 40 -24 40 -28 0 -5
-15 -23 -34 -41 -29 -28 -39 -32 -63 -26 -59 15 -68 43 -26 87 32 33 33 34 83
8z"/>
<path d="M12362 7583 c-8 -14 -6 -23 11 -41 l21 -22 -35 -38 c-19 -20 -64 -68
-100 -107 -120 -127 -127 -167 -43 -244 55 -50 59 -52 108 -49 44 3 51 6 54
26 2 15 -2 22 -13 22 -19 0 -65 44 -65 63 0 7 43 62 96 121 l97 107 31 -28
c60 -56 64 -58 87 -38 19 19 19 19 -27 66 l-47 48 27 35 c15 20 36 41 47 47
44 23 14 34 -97 34 -60 0 -116 4 -126 8 -11 6 -19 3 -26 -10z"/>
<path d="M2193 7433 c-60 -21 -138 -94 -159 -148 -34 -90 -4 -205 73 -280 54
-53 90 -69 153 -69 64 0 103 18 167 77 63 58 86 108 85 184 -3 173 -163 292
-319 236z m51 -93 c74 -28 166 -148 166 -216 0 -70 -62 -104 -129 -70 -61 32
-151 164 -151 222 0 31 38 74 65 74 13 0 35 -4 49 -10z"/>
<path d="M6840 7431 c-6 -12 -20 -66 -30 -121 -10 -54 -31 -131 -45 -172 -41
-112 -41 -115 -9 -149 15 -16 38 -29 50 -29 94 0 315 -84 368 -139 33 -34 56
-101 56 -162 0 -50 -36 -147 -67 -181 -9 -10 -14 -21 -10 -24 9 -10 162 -17
202 -10 34 7 36 9 22 24 -42 48 -62 107 -61 182 1 84 14 118 66 166 45 43 166
102 265 129 91 25 139 49 159 80 10 17 10 27 -3 60 -37 98 -62 186 -77 264 -8
46 -20 89 -26 95 -7 7 -26 -5 -63 -41 -28 -28 -98 -79 -154 -112 -142 -86
-163 -116 -179 -248 -11 -84 -7 -87 78 -57 103 37 158 77 158 114 0 18 -8 34
-22 44 -19 13 -25 13 -56 0 -19 -8 -37 -12 -40 -9 -13 12 38 61 72 69 30 8 41
6 64 -11 15 -11 31 -36 36 -56 15 -60 -20 -100 -155 -175 -107 -59 -117 -63
-164 -59 -69 7 -235 89 -280 139 -46 50 -53 82 -28 116 40 53 98 54 156 3 39
-36 29 -51 -18 -28 -50 24 -74 22 -85 -9 -11 -27 1 -59 29 -81 21 -16 166 -73
186 -73 32 0 11 161 -30 222 -20 30 -46 48 -133 89 -88 42 -117 62 -163 111
-55 58 -57 60 -69 39z"/>
<path d="M12805 7405 c-30 -29 -33 -83 -7 -113 44 -53 132 -12 132 62 0 70
-76 101 -125 51z"/>
<path d="M1704 7342 c-88 -111 -92 -118 -72 -138 15 -15 18 -14 48 7 l32 24
32 -37 c57 -66 216 -332 205 -343 -9 -9 -359 141 -382 164 -20 19 -20 20 2 62
22 41 22 43 4 61 -18 18 -21 16 -86 -64 -37 -46 -88 -107 -114 -136 l-46 -53
21 -21 22 -22 23 22 c13 12 36 22 50 22 32 0 94 -24 118 -46 19 -17 144 -282
136 -290 -7 -7 -384 145 -397 161 -9 11 -9 23 1 49 10 28 10 38 -1 51 -7 8
-16 14 -20 13 -10 -4 -190 -219 -197 -236 -3 -6 5 -21 18 -31 22 -18 26 -18
41 -4 11 10 29 14 50 10 30 -4 347 -112 544 -185 l82 -31 21 23 21 23 -83 184
c-92 203 -99 219 -91 219 3 0 65 -26 137 -58 247 -109 244 -108 267 -87 36 33
33 49 -33 167 -35 62 -108 199 -163 305 -92 178 -98 194 -87 222 9 26 8 32
-11 50 -12 12 -24 21 -27 21 -2 -1 -32 -36 -65 -78z"/>
<path d="M5735 7406 c-164 -32 -285 -74 -430 -149 -85 -44 -270 -180 -370
-272 l-60 -55 95 0 c133 0 353 -34 460 -69 331 -111 666 -390 696 -579 13 -85
-55 -186 -144 -213 -119 -35 -236 54 -202 155 26 81 74 82 127 4 32 -47 49
-53 68 -23 29 46 -35 152 -140 232 -190 145 -497 254 -782 278 -67 6 -83 4
-83 -6 1 -27 189 -256 286 -348 109 -103 279 -222 394 -275 114 -52 190 -69
295 -64 79 3 101 8 167 40 186 89 255 230 246 506 -6 177 -41 243 -181 339
-26 18 -56 47 -67 65 -58 95 17 276 135 324 25 11 45 23 45 27 0 12 -95 53
-165 72 -82 23 -300 28 -390 11z"/>
<path d="M8440 7401 c-71 -19 -190 -70 -190 -81 0 -3 15 -14 34 -22 88 -43
145 -123 153 -218 7 -73 -20 -129 -84 -173 -108 -75 -142 -118 -169 -222 -30
-112 -5 -337 51 -451 50 -101 165 -183 299 -210 85 -18 137 -13 266 26 222 68
503 292 705 562 90 120 92 117 -65 98 -328 -40 -601 -151 -792 -319 -48 -42
-98 -128 -98 -167 0 -26 22 -46 42 -39 8 3 25 23 36 44 12 22 29 42 38 45 53
20 84 -13 84 -89 0 -43 -4 -55 -27 -77 -40 -36 -66 -48 -110 -48 -113 1 -218
120 -199 225 29 153 267 384 523 510 157 76 333 114 566 122 l159 6 -69 69
c-84 86 -152 139 -263 205 -167 100 -362 177 -521 208 -108 20 -285 18 -369
-4z"/>
<path d="M12610 7275 c-10 -13 -10 -19 4 -33 9 -10 16 -23 16 -29 0 -10 -180
-181 -207 -197 -7 -3 -21 -1 -32 6 -17 11 -23 10 -37 -4 -15 -15 -10 -23 75
-110 86 -87 92 -92 106 -74 12 16 12 21 -2 43 l-17 25 142 137 c79 75 143 141
142 147 0 10 -154 104 -171 104 -3 0 -12 -7 -19 -15z"/>
<path d="M12820 7084 c-6 -14 -10 -31 -10 -37 0 -11 -94 -245 -149 -370 -17
-40 -19 -51 -8 -68 6 -11 19 -18 27 -15 8 2 94 32 190 65 128 45 189 61 227
61 33 0 53 4 53 11 0 7 -17 32 -37 57 -21 25 -48 56 -60 71 -21 26 -21 26 -42
7 -19 -17 -20 -21 -6 -36 22 -24 19 -38 -12 -54 -33 -17 -173 -60 -177 -55 -6
6 83 182 99 198 13 13 17 12 35 -4 16 -15 22 -16 35 -5 14 12 14 15 -1 39 -26
39 -136 161 -146 161 -5 0 -13 -12 -18 -26z"/>
<path d="M6700 6899 c-122 -20 -242 -108 -268 -197 -16 -52 -15 -81 3 -133 28
-79 90 -123 138 -98 50 27 61 81 27 137 -33 55 -73 34 -52 -27 14 -41 -10 -32
-31 11 -23 48 4 108 50 108 37 0 60 -16 88 -64 45 -77 27 -143 -66 -233 l-52
-51 64 -83 c35 -46 86 -106 114 -134 54 -52 178 -129 230 -141 27 -6 25 -3
-23 35 -29 23 -74 70 -100 103 -26 34 -66 84 -89 112 -24 27 -43 56 -43 63 0
24 40 33 150 33 136 0 141 13 21 52 -94 31 -99 34 -83 50 9 9 45 12 115 10
112 -3 175 10 233 50 35 24 64 80 64 125 l0 27 -32 -31 c-127 -122 -330 -105
-419 36 -36 55 -28 74 47 108 65 29 179 33 259 9 63 -20 65 -20 65 2 0 51 -65
92 -183 116 -83 17 -142 19 -227 5z"/>
<path d="M7614 6900 c-69 -14 -140 -56 -152 -87 -5 -15 -13 -35 -17 -44 -5
-15 0 -14 47 2 60 21 167 25 233 8 23 -6 58 -24 76 -39 l34 -28 -19 -37 c-64
-119 -219 -169 -339 -109 -29 15 -66 37 -83 50 -39 30 -44 30 -44 -1 0 -57 58
-125 129 -150 30 -10 81 -15 161 -15 97 0 119 -3 124 -15 3 -9 0 -17 -7 -20
-61 -18 -141 -52 -144 -61 -5 -15 93 -26 160 -18 42 5 55 3 66 -10 12 -15 12
-20 -5 -41 -10 -13 -39 -49 -63 -82 -25 -32 -79 -93 -120 -135 -42 -43 -72
-78 -67 -78 19 0 169 86 221 127 55 43 145 145 178 201 l17 30 -43 51 c-78 91
-102 161 -76 228 34 91 124 99 150 14 8 -29 8 -43 0 -60 -13 -23 -33 -29 -29
-8 4 24 -13 67 -27 67 -8 0 -21 -13 -30 -30 -50 -97 45 -189 117 -112 40 42
49 69 50 136 0 78 -24 128 -87 184 -65 57 -146 83 -270 88 -55 1 -119 -1 -141
-6z"/>
<path d="M13074 6609 c-189 -73 -244 -282 -105 -400 78 -67 201 -80 201 -22 0
7 -7 13 -17 13 -9 0 -35 11 -58 25 -47 27 -75 74 -75 127 0 37 42 108 64 108
16 0 76 -63 134 -142 23 -31 46 -59 51 -62 11 -7 64 55 86 100 45 95 -13 211
-130 260 -46 19 -89 17 -151 -7z m176 -84 c37 -19 48 -57 26 -90 -9 -14 -21
-25 -27 -25 -11 0 -53 43 -77 79 -15 22 -14 24 3 37 24 18 39 18 75 -1z"/>
<path d="M7118 6365 c-75 -19 -146 -53 -159 -77 -21 -40 39 -140 99 -165 31
-13 38 -12 89 13 31 14 82 28 112 31 49 4 64 1 115 -26 80 -43 99 -41 158 18
46 46 49 52 46 93 -3 39 -7 45 -44 65 -103 57 -290 78 -416 48z m298 -71 c96
-45 89 -53 -43 -47 -104 4 -130 2 -218 -20 -103 -26 -130 -23 -109 11 15 26
112 71 174 81 74 12 134 4 196 -25z"/>
<path d="M7770 6309 c-14 -4 -48 -7 -77 -8 -57 -1 -65 -8 -78 -71 -4 -19 -18
-57 -31 -84 -14 -27 -22 -51 -20 -53 3 -3 26 3 51 13 31 11 59 33 83 62 21 25
55 65 76 89 41 46 39 65 -4 52z"/>
<path d="M8048 6279 c-44 -55 -139 -204 -298 -469 -68 -113 -134 -221 -147
-240 -29 -44 -32 -71 -3 -45 28 26 98 30 140 8 32 -17 62 -65 48 -78 -3 -3
-49 5 -101 19 -53 13 -115 28 -140 31 -79 12 -80 7 35 203 58 99 114 191 123
206 10 14 14 26 10 26 -5 0 -49 -13 -99 -29 -112 -35 -257 -61 -347 -61 -88 0
-243 30 -359 70 -51 17 -94 29 -97 26 -6 -5 -2 -12 134 -230 51 -82 93 -157
93 -167 0 -25 -24 -36 -138 -66 -152 -39 -142 -38 -142 -16 0 26 28 63 56 73
14 6 43 6 69 1 27 -5 45 -5 45 1 0 32 -376 656 -454 752 -21 26 -29 16 -50
-64 -18 -66 -64 -158 -91 -180 -24 -20 -18 -41 38 -135 42 -72 66 -100 127
-148 41 -33 77 -61 80 -64 3 -2 -6 -12 -19 -22 l-24 -18 60 -89 c33 -49 68
-104 77 -121 l16 -33 -36 -15 c-44 -18 -44 -18 -44 -2 0 7 -33 62 -74 123 -56
84 -77 108 -92 105 -43 -8 -46 -5 -68 69 -16 56 -103 248 -120 267 -1 2 -33
-10 -72 -27 -38 -16 -100 -34 -139 -41 -38 -7 -74 -16 -79 -20 -22 -19 124
-194 237 -286 l70 -56 -22 -18 -22 -18 90 -121 90 -121 -41 -29 c-22 -16 -74
-61 -116 -100 -41 -38 -76 -70 -78 -70 -14 0 1 51 27 96 25 44 36 54 64 60 19
3 42 4 50 0 8 -3 15 -2 15 3 0 17 -120 192 -135 198 -9 3 -25 -3 -35 -12 -11
-10 -21 -16 -23 -14 -1 2 -15 42 -31 89 -41 121 -59 154 -140 255 -40 50 -84
106 -98 126 -23 31 -36 38 -88 48 -50 10 -266 66 -332 87 -30 9 -20 -18 29
-80 75 -96 336 -447 373 -501 41 -62 305 -422 359 -490 58 -74 59 -85 11 -140
-56 -64 -70 -96 -77 -168 l-5 -62 88 -58 c80 -52 91 -56 112 -45 28 14 75 66
119 130 62 91 223 206 384 274 100 43 307 84 418 84 190 0 385 -52 554 -147
82 -47 121 -77 201 -158 54 -55 112 -121 128 -148 39 -61 58 -72 101 -53 33
13 89 76 68 76 -6 0 -31 -10 -55 -22 -44 -21 -46 -21 -65 -4 -11 10 -30 38
-41 62 -25 51 -19 71 39 121 49 43 22 42 -45 -3 -61 -41 -79 -39 -99 8 -12 30
-12 35 8 57 21 23 21 24 2 16 -37 -15 -73 -17 -80 -5 -9 14 56 110 97 145 52
44 109 28 123 -33 3 -16 27 -53 54 -83 26 -30 60 -74 75 -99 l27 -45 -6 50
c-4 28 -19 75 -35 106 l-29 57 43 68 c23 38 92 137 152 220 60 83 154 213 209
289 55 76 169 231 254 344 84 113 155 212 158 219 7 18 -4 16 -129 -24 -62
-19 -147 -42 -188 -50 -66 -12 -78 -18 -105 -50 -16 -20 -53 -62 -82 -93 -69
-76 -113 -150 -153 -263 -18 -51 -34 -95 -36 -97 -2 -2 -15 4 -30 14 -14 9
-29 13 -34 8 -5 -6 -125 -180 -145 -211 -5 -7 -32 11 -43 28 -10 17 -2 33 63
130 41 61 75 115 75 120 0 5 -9 15 -21 23 -20 15 -19 16 38 55 104 71 282 276
259 300 -4 3 -62 25 -129 47 -67 23 -129 45 -137 49 -21 9 -104 -130 -145
-244 -30 -83 -32 -85 -62 -83 -30 3 -35 -3 -91 -95 -64 -103 -87 -152 -72
-152 5 0 12 5 16 11 9 15 89 6 110 -12 19 -16 57 -89 50 -96 -5 -5 -88 36
-213 104 l-51 29 64 99 c35 55 68 108 74 118 9 14 6 19 -15 29 -33 15 -32 22
8 47 78 48 223 223 239 288 4 14 -3 33 -19 55 -39 52 -65 107 -88 187 l-22 73
-35 -43z m-717 -659 c50 -18 109 -64 109 -83 0 -5 -77 -7 -179 -5 l-179 3 18
25 c57 80 130 99 231 60z m252 -173 c147 -35 165 -42 300 -108 128 -63 215
-121 317 -210 36 -31 81 -70 100 -87 l34 -30 -27 -41 c-15 -22 -31 -41 -35
-41 -16 0 -91 87 -134 155 -61 95 -109 137 -157 134 -107 -6 -113 -4 -233 86
-113 85 -174 115 -233 115 -17 0 -71 -13 -120 -30 -109 -37 -162 -38 -244 -5
-35 14 -91 28 -124 31 -56 5 -69 2 -132 -29 -38 -19 -99 -58 -134 -87 -81 -66
-115 -80 -197 -80 -63 0 -68 -2 -99 -35 -19 -19 -48 -61 -66 -92 -40 -72 -54
-88 -103 -125 l-39 -28 -24 22 c-13 12 -23 29 -23 38 0 10 35 48 78 87 235
211 370 284 657 359 l130 34 200 -4 c172 -3 215 -7 308 -29z m-1018 -49 c14
-6 25 -15 25 -19 0 -6 -126 -82 -162 -97 -5 -2 -8 8 -8 22 0 35 65 106 96 106
13 0 35 -5 49 -12z m519 -125 c33 -20 62 -15 80 12 19 29 56 33 80 9 13 -12
16 -41 16 -155 0 -138 0 -139 -24 -145 -55 -14 -60 -6 -70 100 l-9 98 -102 -4
c-87 -4 -111 -9 -168 -36 -76 -35 -77 -39 -47 -125 28 -79 26 -105 -7 -118
-20 -7 -30 -6 -39 3 -14 15 -94 220 -94 241 0 8 9 22 19 31 15 14 26 16 54 8
44 -12 63 -1 71 43 8 40 22 44 59 15 43 -34 73 -26 101 28 15 29 19 31 38 20
11 -7 30 -19 42 -25z m311 12 c50 -31 57 -31 93 0 17 14 35 25 41 25 6 0 20
-18 31 -40 16 -32 26 -40 48 -40 16 0 37 7 48 15 30 23 42 18 46 -17 3 -33 4
-33 65 -38 34 -3 65 -9 70 -13 4 -5 -7 -52 -26 -105 -56 -162 -56 -162 -91
-162 -18 0 -33 6 -36 15 -3 8 4 53 17 100 13 51 18 89 13 94 -5 4 -37 20 -72
35 -68 30 -241 52 -247 31 -2 -5 -7 -50 -12 -100 l-8 -90 -40 0 -40 0 3 145
c2 80 9 151 14 158 15 18 38 15 83 -13z m735 -15 c0 -5 -2 -10 -4 -10 -3 0 -8
5 -11 10 -3 6 -1 10 4 10 6 0 11 -4 11 -10z m200 -89 c35 -37 57 -96 39 -106
-4 -3 -33 15 -65 39 -104 76 -117 106 -47 106 29 0 43 -8 73 -39z m-1255 -51
c9 -10 26 -45 36 -76 22 -65 17 -74 -38 -74 -29 0 -33 4 -39 35 -7 40 -27 60
-49 51 -13 -5 -15 -15 -10 -51 7 -41 5 -45 -18 -56 -38 -17 -59 1 -73 62 -10
44 -10 57 2 75 14 21 65 39 129 47 17 2 33 5 36 6 3 0 14 -8 24 -19z m480 6
c78 -20 115 -43 115 -69 0 -29 -29 -115 -40 -122 -5 -3 -26 1 -46 10 -32 13
-36 18 -29 42 3 16 9 38 11 49 7 29 -25 42 -43 18 -7 -10 -13 -26 -13 -35 0
-48 -24 -60 -75 -37 -24 11 -25 15 -19 57 14 100 37 115 139 87z m-874 -13 c5
-5 11 -22 15 -39 5 -27 2 -31 -33 -48 -65 -31 -173 -116 -179 -142 -5 -18 3
-39 25 -75 52 -84 32 -125 -35 -74 -47 36 -53 26 -13 -19 30 -34 31 -39 18
-63 -8 -14 -24 -30 -37 -36 -25 -12 -23 -13 -114 42 -53 32 -50 5 3 -32 22
-15 44 -38 50 -51 10 -21 7 -30 -16 -60 -15 -20 -35 -36 -45 -36 -10 0 -45 18
-79 41 -56 38 -61 43 -61 77 1 21 13 61 30 92 17 30 30 62 30 71 0 26 26 41
62 37 l33 -3 0 50 c0 59 8 75 39 75 13 0 38 5 55 11 31 11 32 14 29 58 -3 50
-1 51 65 35 37 -9 67 18 67 61 0 17 3 35 8 39 8 9 72 0 83 -11z m1281 0 c23
-21 23 -50 0 -88 -10 -16 -38 -66 -61 -110 -24 -44 -44 -81 -46 -83 -4 -5 -85
37 -85 44 0 2 11 27 25 54 14 27 34 73 45 102 21 53 62 98 89 98 8 0 23 -7 33
-17z m110 -120 c10 -9 18 -23 18 -32 0 -17 -137 -182 -156 -188 -6 -2 -22 5
-35 16 l-23 19 38 58 c58 88 106 144 124 144 8 0 24 -7 34 -17z m-1347 -35
c11 -18 25 -45 32 -61 11 -24 10 -29 -12 -43 -30 -20 -70 -12 -85 16 -6 11
-17 20 -26 20 -23 0 -28 -29 -9 -50 22 -24 14 -46 -21 -62 -25 -12 -29 -10
-55 22 -46 55 -37 79 53 145 73 54 97 57 123 13z"/>
<path d="M6730 6300 c0 -22 136 -162 186 -191 65 -37 81 -37 56 -1 -11 15 -29
57 -41 94 -12 36 -27 71 -34 76 -7 5 -39 13 -72 16 -33 4 -68 9 -77 12 -10 3
-18 0 -18 -6z"/>
<path d="M5060 6177 c0 -8 289 -578 298 -587 2 -3 2 42 0 100 -6 125 -18 158
-106 280 -55 78 -192 225 -192 207z"/>
<path d="M9351 6058 c-126 -139 -171 -222 -179 -327 -2 -38 -1 -86 2 -106 l7
-36 45 93 c25 51 88 180 141 286 53 106 94 195 91 198 -3 3 -51 -46 -107 -108z"/>
<path d="M7184 6116 c-56 -26 -134 -115 -134 -154 0 -18 8 -21 87 -27 85 -8
299 0 328 11 23 9 18 24 -34 95 -75 101 -145 123 -247 75z"/>
<path d="M5433 5368 c5 -475 0 -460 175 -535 48 -20 68 -24 80 -16 25 15 40
94 41 216 1 111 -10 159 -43 186 -15 12 -19 12 -33 -2 -12 -12 -18 -43 -22
-114 -5 -77 -9 -98 -21 -98 -28 0 -34 61 -21 209 7 77 15 143 17 145 10 10
135 -126 156 -169 21 -42 22 -56 19 -228 -1 -100 1 -191 4 -203 7 -22 172
-135 211 -145 65 -16 98 40 109 183 l6 92 -86 98 c-47 54 -91 98 -96 98 -12 0
-19 -182 -7 -213 10 -29 24 -22 31 18 8 39 23 38 43 -4 18 -37 14 -89 -10
-122 -14 -18 -16 -17 -56 21 -23 22 -46 48 -51 58 -6 10 -14 106 -18 213 l-8
195 -45 47 c-55 58 -200 234 -333 403 -16 21 -34 38 -38 39 -4 0 -6 -168 -4
-372z"/>
<path d="M9040 5677 c-25 -30 -81 -101 -125 -157 -44 -57 -111 -139 -150 -183
-38 -43 -76 -91 -84 -105 -14 -26 -19 -96 -20 -311 l-1 -84 -40 -39 c-47 -44
-63 -47 -84 -16 -20 28 -20 81 -1 118 21 41 35 37 35 -10 0 -48 14 -51 35 -10
23 44 17 195 -6 195 -10 0 -54 -42 -99 -93 l-83 -93 12 -92 c22 -164 32 -187
82 -187 35 0 49 7 139 65 113 74 108 62 97 266 l-10 177 26 56 c17 37 51 82
94 124 l67 67 13 -50 c7 -28 13 -106 13 -178 0 -106 -3 -129 -15 -134 -9 -3
-19 -2 -23 2 -4 3 -10 54 -13 112 -4 58 -11 109 -16 114 -14 14 -53 -19 -69
-57 -26 -63 -12 -290 22 -341 8 -13 23 -23 34 -23 32 0 178 77 195 103 11 17
17 73 25 203 11 203 12 570 2 597 -6 14 -15 8 -52 -36z"/>
<path d="M5015 4954 c11 -9 65 -48 120 -87 55 -39 123 -94 151 -122 53 -53 70
-90 92 -205 7 -39 9 -25 16 96 6 100 5 148 -3 163 -15 27 -59 49 -191 96 -58
21 -127 46 -155 56 -41 16 -46 16 -30 3z"/>
<path d="M9345 4895 c-107 -40 -176 -71 -187 -85 -15 -19 -18 -41 -17 -134 1
-115 11 -183 22 -156 3 8 11 42 18 75 6 33 20 76 30 96 24 47 111 127 221 200
48 33 88 62 88 64 0 7 16 12 -175 -60z"/>
<path d="M6842 4810 c-28 -10 -71 -29 -95 -42 -40 -22 -42 -25 -45 -77 -2 -40
1 -58 15 -73 18 -20 18 -19 23 28 4 41 9 51 33 62 27 13 30 12 68 -30 22 -24
38 -35 35 -26 -25 83 -15 118 34 118 31 0 58 -27 80 -79 6 -16 19 -32 28 -36
9 -3 58 -3 110 1 l94 7 -7 36 c-4 20 -9 39 -11 43 -9 14 -31 8 -49 -12 -12
-13 -31 -20 -57 -20 -36 0 -78 26 -78 49 0 5 -12 23 -26 40 -31 37 -71 40
-152 11z"/>
<path d="M7537 4803 c-12 -15 -37 -43 -55 -61 -31 -33 -35 -34 -88 -30 -33 3
-60 11 -65 19 -13 21 -30 -8 -27 -46 l3 -30 102 -3 102 -3 31 61 c35 69 48 77
89 60 37 -15 42 -29 30 -75 -15 -53 -6 -64 19 -23 36 59 47 64 77 34 18 -19
25 -36 25 -66 0 -45 11 -51 34 -18 21 30 20 81 -1 107 -10 11 -53 39 -97 61
-97 50 -145 53 -179 13z"/>
<path d="M5492 4702 c-18 -12 -30 -105 -42 -333 -13 -259 -13 -519 1 -519 5 0
37 19 71 41 33 23 97 59 143 79 46 22 93 52 107 69 24 28 26 39 32 173 9 193
11 198 48 198 19 0 39 -10 59 -29 28 -28 29 -33 29 -125 0 -53 -4 -96 -9 -96
-5 0 -17 31 -26 70 -9 38 -20 68 -25 65 -4 -2 -15 -57 -25 -121 -16 -99 -17
-117 -4 -125 19 -13 109 -5 119 11 4 6 10 73 14 148 4 76 9 160 12 187 5 42 2
56 -18 85 -47 70 -189 128 -214 88 -5 -7 -11 -89 -15 -182 -8 -195 -13 -209
-95 -237 -91 -32 -87 -39 -82 129 5 141 11 182 28 182 12 0 20 -37 27 -123 3
-42 11 -85 18 -94 11 -15 14 -14 26 8 10 17 14 68 14 179 0 174 -7 197 -70
245 -36 28 -101 42 -123 27z"/>
<path d="M8941 4688 c-78 -42 -86 -60 -89 -216 -2 -140 12 -242 35 -249 7 -3
14 13 17 44 31 247 51 251 62 13 8 -165 5 -170 -88 -133 -37 15 -70 33 -73 41
-9 25 -25 193 -25 275 0 123 -19 138 -115 93 -61 -28 -112 -83 -121 -132 -4
-20 -4 -109 0 -198 9 -188 11 -192 88 -189 28 1 53 4 55 7 2 2 -1 42 -7 88 -6
45 -13 102 -16 126 -3 23 -9 42 -13 42 -4 0 -15 -31 -25 -70 -27 -103 -40 -90
-33 31 5 73 11 107 23 120 20 22 72 35 86 21 5 -5 14 -84 20 -173 7 -113 14
-171 25 -187 8 -13 42 -36 76 -51 34 -16 104 -56 156 -89 51 -34 102 -62 114
-62 19 0 20 4 14 103 -4 56 -14 234 -22 395 -9 162 -21 310 -28 330 -10 31
-17 38 -42 40 -17 2 -49 -7 -74 -20z"/>
<path d="M7850 4617 c0 -9 27 -41 59 -72 33 -32 79 -82 103 -111 45 -57 73
-73 91 -55 17 17 -37 114 -87 157 -75 65 -166 109 -166 81z"/>
<path d="M6587 4587 c-85 -47 -119 -78 -150 -136 -29 -52 -30 -81 -4 -81 8 0
45 34 82 75 37 42 87 89 111 106 27 18 44 38 44 49 0 27 -16 25 -83 -13z"/>
<path d="M7306 4542 c6 -59 6 -62 -20 -73 -20 -9 -32 -9 -51 -1 -22 10 -25 18
-25 63 l0 52 -127 -7 c-264 -13 -446 -77 -528 -184 -22 -30 -48 -58 -58 -63
-21 -12 -83 4 -235 62 -105 40 -162 48 -179 27 -18 -22 -33 -83 -42 -162 -15
-129 12 -220 105 -353 27 -39 38 -63 30 -63 -26 0 -64 -59 -76 -115 -14 -67
-7 -106 27 -146 33 -39 70 -57 135 -67 l53 -7 3 -41 c2 -23 -8 -86 -22 -141
-46 -181 -59 -343 -60 -730 -1 -339 0 -352 19 -379 33 -43 84 -56 242 -62 127
-4 143 -2 149 13 4 9 -7 100 -24 203 -35 210 -65 489 -87 821 -18 268 -18 281
-4 281 6 0 50 -39 98 -87 48 -49 117 -115 153 -148 68 -61 76 -76 102 -197 5
-20 14 -28 38 -33 18 -3 54 -13 79 -21 l45 -14 25 -113 24 -112 40 -7 c57 -10
277 -9 293 1 8 5 22 55 32 116 10 59 23 112 28 117 5 5 42 18 82 28 40 10 76
24 80 31 5 6 11 30 14 51 10 61 43 116 99 167 29 25 92 85 140 134 49 48 93
87 99 87 6 0 7 -30 3 -77 -3 -43 -15 -206 -25 -363 -19 -260 -42 -466 -85
-749 -11 -75 -13 -107 -5 -115 16 -16 234 -20 297 -6 35 8 59 20 73 37 41 52
44 89 31 418 -14 364 -34 587 -61 696 -20 78 -26 165 -12 185 4 6 33 14 64 17
73 7 111 30 137 82 23 47 26 90 10 164 -12 56 -25 71 -70 80 l-32 6 50 55
c115 127 135 210 102 421 -8 50 -17 73 -35 90 l-25 23 -72 -18 c-40 -10 -96
-29 -126 -42 -69 -31 -165 -56 -185 -48 -8 3 -18 14 -21 25 -17 53 -206 162
-335 194 -36 9 -126 22 -200 29 -74 8 -145 17 -158 21 -23 8 -23 7 -16 -53z
m-141 -64 c44 -83 155 -78 191 8 l14 34 81 0 c83 0 199 -14 259 -31 94 -28
118 -49 55 -49 -19 0 -90 -19 -157 -41 -125 -42 -199 -52 -262 -34 -27 7 -28
6 -23 -16 3 -13 14 -50 26 -81 18 -50 21 -80 21 -217 l0 -160 55 -31 c62 -35
75 -53 75 -104 0 -47 -22 -66 -76 -66 -31 0 -60 -8 -90 -26 -36 -21 -53 -25
-85 -21 -22 3 -48 12 -58 21 -10 9 -46 20 -81 24 -86 12 -106 42 -79 120 8 24
21 34 67 51 l57 22 0 182 c0 178 1 183 27 236 15 30 25 58 22 62 -3 5 -17 4
-32 -2 -39 -15 -111 -3 -244 42 -64 21 -132 39 -150 40 -18 0 -42 4 -53 8 -16
6 -9 12 39 30 82 30 145 39 271 37 l110 -1 20 -37z m-964 -114 c80 -24 203
-89 231 -122 14 -17 37 -68 51 -113 30 -95 56 -140 148 -254 128 -156 141
-189 110 -257 -24 -54 -46 -137 -37 -145 3 -3 13 11 22 33 9 21 33 60 55 86
33 39 39 54 39 93 0 71 -20 105 -140 232 -111 118 -170 209 -170 260 0 31 32
93 71 138 29 32 35 35 88 35 82 0 90 -10 36 -49 -25 -18 -45 -36 -45 -42 0
-12 -2 -13 54 16 72 36 160 35 241 -4 61 -29 141 -100 100 -88 -108 31 -138
37 -194 37 -60 0 -242 -48 -264 -69 -9 -9 159 -136 208 -156 44 -19 88 -19
154 1 29 8 57 14 64 11 6 -2 -17 -27 -52 -55 -68 -57 -67 -60 2 -36 25 8 55
14 66 12 19 -3 18 -6 -14 -46 -37 -48 -52 -107 -41 -172 6 -37 4 -40 -26 -56
-150 -74 -218 -160 -173 -220 14 -18 14 -17 15 16 1 65 28 93 146 155 l72 37
96 -51 c129 -68 162 -68 282 -5 47 25 99 46 115 46 34 1 121 -42 173 -85 29
-24 40 -43 45 -72 3 -22 11 -39 16 -38 17 4 17 73 0 99 -16 25 -149 118 -184
129 -16 5 -19 18 -23 79 -3 62 -8 81 -36 126 -18 29 -31 54 -28 57 2 2 26 -3
54 -12 71 -24 98 -17 51 13 -21 12 -45 34 -54 49 l-17 26 38 -8 c22 -5 71 -9
111 -9 65 -1 75 2 115 32 23 18 71 51 106 73 34 23 62 45 62 49 0 14 -16 20
-122 51 -112 32 -178 36 -258 14 -117 -31 -109 -32 -71 8 68 72 211 106 307
73 55 -19 54 -18 54 -8 0 4 -18 18 -40 32 -44 27 -48 35 -24 44 37 14 111 6
144 -16 59 -41 75 -72 75 -146 0 -62 -4 -74 -44 -142 -30 -51 -77 -106 -143
-170 -80 -77 -101 -103 -108 -135 -13 -56 -3 -98 35 -142 17 -21 42 -57 54
-80 12 -24 24 -43 28 -43 14 0 -8 85 -31 121 -14 21 -26 50 -26 64 0 35 30 91
77 145 46 52 131 177 160 235 12 22 29 67 39 100 21 71 41 96 111 141 56 36
185 84 228 84 41 0 59 -53 59 -175 1 -123 -19 -173 -116 -287 -75 -88 -112
-157 -111 -206 2 -69 67 -95 114 -46 l24 26 -30 -7 c-38 -10 -37 -10 -57 -1
-27 12 -23 68 7 100 31 34 74 34 105 1 18 -19 23 -36 23 -80 0 -90 -47 -133
-149 -134 -54 -1 -88 26 -108 86 -32 92 -12 164 66 250 130 142 190 274 143
313 -23 19 -129 8 -163 -16 -37 -27 -69 -97 -78 -169 -7 -60 -7 -60 14 -42 11
10 30 38 43 63 23 43 55 64 78 49 26 -16 -2 -75 -75 -157 -69 -77 -79 -109
-79 -249 l0 -126 38 -54 c47 -68 47 -90 2 -125 -20 -15 -34 -32 -32 -38 2 -6
28 -18 58 -26 50 -15 54 -18 57 -49 5 -50 -6 -81 -31 -90 -12 -5 -37 -15 -54
-21 -18 -7 -33 -16 -33 -20 0 -4 28 -13 62 -19 34 -6 65 -14 69 -18 4 -5 9
-35 11 -67 l3 -60 -74 -15 c-95 -20 -101 -36 -19 -45 114 -13 108 -7 108 -96
l0 -79 -92 -28 c-50 -15 -93 -33 -95 -39 -2 -7 25 -13 75 -17 43 -3 85 -9 94
-12 21 -8 34 -119 22 -178 l-9 -42 -85 -17 c-47 -9 -100 -17 -117 -18 -18 0
-33 -4 -33 -10 0 -11 38 -17 144 -24 43 -2 83 -9 88 -14 12 -12 1 -84 -15
-106 -20 -26 -127 -47 -228 -44 -92 3 -107 9 -89 38 7 11 37 16 124 20 109 5
152 17 132 37 -4 5 -53 10 -108 13 -124 6 -127 9 -107 111 l14 74 92 15 c50 8
94 18 97 21 3 3 -27 12 -66 19 -110 19 -108 17 -107 113 1 45 4 96 8 112 6 30
7 30 84 35 97 7 117 23 50 39 -135 33 -123 26 -123 84 0 78 17 97 90 97 58 0
85 14 59 31 -8 5 -28 9 -45 9 -45 0 -74 28 -80 75 -6 52 3 63 67 84 61 20 76
41 30 41 -36 0 -83 17 -93 33 -4 7 -8 31 -8 54 0 36 5 46 30 65 35 26 37 37
10 71 -18 23 -20 41 -21 194 -1 287 -24 332 -35 68 l-7 -157 -42 -57 c-50 -68
-232 -239 -318 -299 -316 -221 -567 -184 -922 136 -55 49 -122 118 -150 153
l-49 63 -8 170 c-4 93 -10 171 -13 174 -16 16 -20 -29 -20 -206 0 -187 -1
-199 -22 -233 -30 -47 -29 -54 8 -81 28 -21 31 -27 26 -67 -6 -54 -23 -71 -75
-78 -52 -7 -46 -19 12 -27 61 -9 69 -22 59 -92 -9 -64 -13 -67 -96 -84 -31 -6
-55 -15 -52 -20 3 -4 36 -11 75 -15 38 -4 74 -13 80 -20 6 -8 10 -41 8 -77
l-3 -63 -82 -20 c-46 -10 -83 -22 -83 -26 0 -10 56 -19 121 -19 l58 0 7 -37
c5 -21 8 -74 8 -118 l1 -80 -80 -13 c-44 -8 -87 -16 -95 -19 -26 -8 18 -26
105 -44 l80 -16 13 -49 c27 -107 14 -121 -115 -123 -73 -1 -103 -7 -103 -21 0
-18 68 -30 165 -30 97 0 103 -1 108 -22 4 -12 4 -25 1 -28 -3 -3 -51 -5 -107
-5 -110 1 -177 15 -206 44 -19 19 -38 97 -27 109 4 3 55 9 114 12 86 4 107 8
107 20 0 11 -18 17 -72 23 -40 4 -89 14 -110 21 l-38 13 -3 98 c-2 69 1 101 9
106 7 4 42 10 79 14 71 7 107 20 80 29 -8 2 -40 12 -70 22 -109 34 -110 35
-110 118 l0 74 44 11 c25 6 61 11 80 11 72 0 53 35 -24 45 -92 11 -90 9 -90
75 0 69 12 81 94 90 27 3 51 10 53 16 2 6 -20 17 -49 25 l-53 14 -3 49 c-5 83
0 93 58 98 50 5 76 17 53 25 -29 11 -63 46 -63 67 0 13 11 38 25 57 51 71 57
95 53 224 -4 140 -14 166 -104 267 -30 34 -63 78 -72 96 -15 30 -15 34 1 49
16 16 19 16 44 -3 16 -11 41 -44 56 -72 44 -81 55 -69 38 40 -18 104 -85 168
-179 168 -35 0 -44 -4 -51 -24 -20 -51 7 -112 121 -274 91 -130 110 -168 110
-228 0 -47 -29 -121 -56 -143 -27 -23 -117 -26 -155 -6 -78 40 -81 202 -5 221
32 8 74 -21 87 -61 8 -24 6 -31 -12 -46 -12 -10 -30 -15 -42 -12 -19 5 -20 4
-10 -16 17 -31 64 -28 90 5 42 53 20 127 -62 213 -81 85 -106 124 -133 198
-26 75 -30 144 -13 225 18 85 23 88 110 62z m773 -215 c31 -12 56 -28 56 -35
0 -19 -118 -74 -159 -74 -36 0 -133 39 -144 58 -9 13 121 72 160 72 17 0 56
-10 87 -21z m794 -13 c29 -15 52 -28 52 -31 0 -8 -94 -53 -136 -64 -33 -9 -50
-8 -90 5 -97 33 -110 70 -36 103 62 27 139 23 210 -13z m-470 -1102 c20 -6 22
-12 22 -85 l0 -79 -49 0 c-56 0 -61 7 -61 102 0 51 2 57 23 61 36 7 41 7 65 1z"/>
<path d="M7370 3480 c-36 -4 -128 -5 -206 -2 -135 5 -143 4 -195 -20 -72 -34
-139 -84 -139 -105 0 -14 9 -15 78 -7 97 10 660 12 727 1 31 -5 56 -3 65 3 13
9 10 15 -17 38 -104 89 -172 109 -313 92z"/>
<path d="M7020 3261 c0 -16 129 -72 186 -81 101 -17 254 20 301 72 18 20 18
20 -47 12 -79 -11 -292 -12 -377 -2 -35 4 -63 4 -63 -1z"/>
<path d="M5843 3950 c-111 -23 -222 -110 -277 -218 -32 -64 -32 -76 -1 -100
14 -11 25 -24 25 -29 0 -5 -16 -24 -35 -43 -33 -32 -35 -38 -35 -95 0 -115 83
-241 196 -296 56 -28 78 -33 164 -37 93 -4 103 -3 156 23 70 35 126 84 149
131 23 49 57 173 50 184 -3 5 -25 14 -48 21 -104 27 -147 126 -116 269 9 44 8
55 -11 95 -36 75 -125 114 -217 95z m90 -69 c35 -14 67 -51 67 -78 0 -26 -23
-30 -64 -12 -20 10 -34 9 -70 -5 -116 -44 -163 -193 -98 -309 39 -70 102 -109
183 -115 54 -4 65 -1 110 27 57 35 109 42 109 14 -1 -29 -35 -97 -69 -135 -71
-81 -236 -109 -348 -59 -94 42 -183 166 -183 257 0 35 6 47 45 86 25 25 45 51
45 57 0 6 -13 20 -30 33 -16 12 -30 28 -30 35 0 48 94 156 165 189 53 25 125
31 168 15z m60 -178 c4 -2 7 -17 7 -32 0 -37 18 -87 47 -134 14 -22 23 -40 21
-41 -54 -40 -90 -46 -136 -22 -75 39 -101 115 -62 184 12 22 32 45 44 50 19 9
58 7 79 -5z"/>
<path d="M8564 3932 c-77 -36 -112 -115 -94 -211 11 -64 7 -96 -20 -151 -24
-47 -47 -66 -100 -81 -25 -7 -49 -16 -54 -20 -11 -10 29 -143 59 -195 34 -57
83 -98 152 -124 48 -18 73 -21 148 -18 79 3 99 8 155 37 85 43 117 76 164 161
31 58 38 82 39 130 2 56 -1 62 -36 98 -20 21 -37 42 -37 47 0 5 12 22 27 37
l27 28 -27 56 c-82 166 -276 265 -403 206z m224 -76 c36 -18 101 -90 127 -138
l19 -37 -27 -29 c-42 -44 -37 -71 21 -111 29 -20 32 -27 32 -74 -1 -99 -63
-195 -161 -247 -151 -80 -341 -33 -410 102 -42 83 -6 110 79 57 46 -28 57 -31
111 -27 78 6 144 46 186 112 25 42 30 59 30 116 0 57 -5 74 -30 115 -42 67
-76 90 -133 90 -26 0 -57 -4 -69 -8 -34 -12 -30 24 5 64 43 49 142 55 220 15z
m-164 -167 c80 -63 73 -175 -14 -219 -48 -25 -83 -25 -121 -3 -32 19 -37 44
-14 63 16 13 55 111 55 138 0 44 51 55 94 21z"/>
<path d="M5385 3624 c-60 -13 -105 -28 -105 -34 0 -9 72 -34 139 -49 39 -9 46
-7 67 14 37 37 31 52 -26 64 -28 6 -52 10 -53 10 -1 -1 -11 -3 -22 -5z"/>
<path d="M9060 3623 c-33 -13 -39 -24 -28 -48 19 -43 51 -48 130 -20 87 30
100 41 67 54 -32 12 -150 22 -169 14z"/>
<path d="M5374 3391 c-116 -78 -119 -86 -31 -78 78 7 116 23 123 53 6 23 -10
64 -25 64 -4 0 -34 -18 -67 -39z"/>
<path d="M9064 3406 c-10 -43 -1 -60 46 -78 46 -17 140 -24 140 -10 0 18 -146
112 -174 112 -3 0 -8 -11 -12 -24z"/>
<path d="M2572 3338 c-18 -18 -15 -32 17 -96 31 -61 115 -148 171 -177 63 -33
215 -85 310 -106 109 -25 128 -39 230 -171 45 -57 57 -80 47 -84 -8 -3 -58
-16 -111 -29 -54 -13 -100 -25 -103 -28 -6 -6 266 -337 277 -337 3 0 17 11 30
25 l23 24 -37 41 c-40 44 -42 52 -22 69 8 6 146 78 308 160 221 110 293 151
289 162 -3 8 -52 73 -107 144 -157 202 -231 261 -339 272 -89 9 -205 -38 -205
-83 0 -9 13 -29 29 -45 41 -40 78 -38 131 6 60 50 96 37 200 -70 l65 -67 -70
7 c-268 25 -728 123 -854 180 -81 38 -117 69 -167 146 -37 58 -48 69 -72 69
-15 0 -33 -5 -40 -12z m958 -448 c167 -27 181 -30 175 -39 -8 -15 -224 -103
-238 -98 -11 4 -107 149 -107 162 0 3 10 3 23 0 12 -2 78 -14 147 -25z"/>
<path d="M11361 3281 c-11 -21 -52 -88 -91 -147 -91 -140 -115 -213 -115 -349
1 -86 4 -108 27 -155 29 -63 67 -102 120 -124 44 -19 60 -19 111 -5 92 25 157
130 157 254 l0 63 30 -11 c43 -16 93 12 120 68 37 76 16 304 -33 353 -38 38
-47 22 -47 -89 0 -91 -2 -99 -19 -99 -21 0 -97 88 -185 213 -26 37 -50 67 -52
67 -2 0 -13 -17 -23 -39z m64 -333 c44 -64 50 -79 49 -123 -1 -61 -26 -113
-59 -121 -63 -16 -155 97 -155 188 0 91 76 197 105 147 5 -9 33 -50 60 -91z"/>
<path d="M6590 3267 c0 -56 29 -379 39 -430 5 -27 13 -53 19 -59 5 -5 51 -18
101 -27 51 -10 96 -22 100 -27 5 -5 16 -54 25 -109 10 -55 22 -105 27 -111 5
-7 41 -20 79 -29 38 -9 74 -22 79 -29 11 -13 25 -96 66 -401 38 -280 59 -380
75 -370 12 7 14 934 2 951 -4 6 -42 16 -86 23 -43 6 -82 13 -86 16 -5 3 -14
31 -20 63 -38 188 -39 190 -73 197 -116 22 -127 26 -127 50 0 13 -7 56 -15 96
-15 71 -17 73 -98 150 -45 43 -88 78 -94 79 -8 0 -13 -13 -13 -33z"/>
<path d="M7835 3219 l-86 -84 -16 -91 -16 -91 -71 -17 c-39 -9 -76 -20 -82
-24 -6 -4 -23 -54 -39 -112 -15 -58 -31 -112 -36 -120 -4 -8 -36 -20 -75 -27
-37 -7 -73 -18 -80 -25 -8 -9 -13 -71 -15 -198 -6 -306 0 -760 10 -760 5 0 14
21 20 48 10 41 58 373 91 622 6 46 16 92 21 101 5 11 37 24 85 35 53 13 80 24
89 39 7 11 18 59 25 107 7 48 17 93 23 102 7 9 51 21 107 31 52 9 99 20 103
24 14 14 50 502 38 514 -7 7 -36 -14 -96 -74z"/>
<path d="M9013 3277 c-5 -6 -18 -31 -28 -55 -22 -51 -23 -48 78 -111 69 -43
91 -46 69 -11 -6 11 -34 58 -61 105 -34 60 -51 81 -58 72z"/>
<path d="M5451 3180 c-33 -57 -61 -108 -61 -113 0 -5 10 -3 23 5 12 8 50 31
85 52 37 23 62 44 62 54 -1 9 -11 37 -24 61 l-23 45 -62 -104z"/>
<path d="M6095 3125 c-38 -23 -74 -50 -79 -58 -10 -16 -5 -61 59 -482 32 -208
45 -278 52 -272 2 3 7 58 9 124 10 265 35 706 39 713 14 23 -17 13 -80 -25z"/>
<path d="M8362 3018 c4 -79 11 -231 17 -338 6 -107 11 -234 11 -282 0 -52 4
-88 10 -88 6 0 10 3 10 8 0 4 14 95 30 202 42 270 80 529 80 546 0 10 -144 94
-162 94 -2 0 0 -64 4 -142z"/>
<path d="M5597 2983 c-50 -156 -51 -163 -39 -163 17 0 192 220 192 241 0 11
-79 69 -95 69 -6 0 -33 -66 -58 -147z"/>
<path d="M8827 3099 c-41 -25 -47 -33 -41 -52 9 -30 37 -68 114 -160 64 -76
86 -93 77 -59 -26 90 -93 302 -97 302 -3 0 -27 -14 -53 -31z"/>
<path d="M5807 3053 c-11 -10 -8 -551 2 -557 10 -7 120 430 128 511 l6 53 -65
0 c-36 0 -68 -3 -71 -7z"/>
<path d="M8593 3001 c7 -77 105 -474 122 -498 12 -15 14 14 15 217 0 129 -3
259 -6 288 l-7 52 -65 0 -65 0 6 -59z"/>
<path d="M10972 2734 c-29 -20 -64 -89 -60 -117 2 -13 30 -42 72 -73 78 -58
111 -105 126 -181 20 -95 14 -99 -60 -47 -103 73 -235 134 -289 134 -59 0
-108 -29 -128 -77 -17 -43 -30 -178 -17 -186 5 -3 22 -7 39 -8 27 -4 30 -1 38
39 5 24 15 46 23 49 43 16 244 -80 326 -156 53 -49 58 -57 58 -95 0 -52 -46
-148 -95 -198 -18 -20 -56 -44 -82 -53 -82 -30 -110 -80 -83 -149 25 -66 161
0 246 120 44 62 89 172 109 269 26 125 22 347 -9 466 -56 220 -136 318 -214
263z"/>
<path d="M6653 2665 c-3 -9 0 -66 7 -128 29 -273 132 -620 249 -842 62 -118
162 -281 200 -325 l30 -35 -5 50 c-6 50 -17 127 -54 370 -10 72 -33 237 -50
369 -17 131 -35 246 -40 256 -6 12 -31 22 -74 30 -36 7 -71 17 -79 24 -8 6
-22 58 -32 119 -16 98 -20 110 -42 118 -40 15 -103 11 -110 -6z m270 -361 c65
-10 40 -24 -43 -24 -76 0 -130 13 -130 32 0 9 80 5 173 -8z m-20 -70 c85 -8
92 -19 19 -29 -50 -7 -127 6 -145 24 -13 13 14 14 126 5z m20 -81 c37 -3 67
-10 67 -14 0 -16 -76 -22 -135 -10 -121 25 -83 39 68 24z m35 -79 c44 -7 58
-23 20 -25 -77 -3 -168 14 -168 33 0 10 23 9 148 -8z m25 -80 c9 -3 17 -10 17
-15 0 -7 -27 -8 -72 -4 -87 8 -98 11 -98 26 0 11 107 6 153 -7z m-1 -80 c21
-4 35 -10 32 -15 -8 -14 -107 -10 -134 6 -24 14 -24 14 20 15 25 0 62 -3 82
-6z"/>
<path d="M7772 2673 c-27 -5 -37 -28 -46 -103 -4 -30 -12 -74 -17 -97 l-11
-41 -73 -17 c-40 -8 -79 -21 -88 -28 -11 -9 -23 -79 -47 -287 -17 -151 -44
-360 -60 -465 -42 -281 -44 -299 -31 -291 14 9 125 178 184 281 60 105 127
256 165 375 64 195 127 532 120 633 -3 41 -4 42 -38 43 -19 1 -45 0 -58 -3z
m8 -349 c0 -16 -78 -34 -152 -34 -107 1 -84 17 39 29 48 4 94 9 101 10 6 0 12
-1 12 -5z m0 -79 c0 -2 -13 -11 -30 -20 -32 -17 -185 -21 -195 -6 -6 10 48 18
203 29 12 1 22 0 22 -3z m-75 -100 c-32 -15 -165 -20 -165 -7 0 19 17 22 104
21 85 -1 89 -1 61 -14z m20 -64 c-8 -14 -108 -33 -151 -29 -62 5 -53 26 13 31
121 7 144 7 138 -2z m-35 -80 c0 -11 -86 -31 -130 -31 -36 0 -49 18 -18 24 67
15 148 19 148 7z m-38 -93 c-7 -7 -42 -13 -80 -15 -65 -3 -66 -2 -37 12 38 18
135 21 117 3z"/>
<path d="M3740 2491 c-16 -31 -12 -39 28 -51 57 -17 112 -42 112 -51 0 -4 -52
-35 -116 -69 -163 -86 -238 -133 -242 -150 -1 -9 21 -30 55 -51 103 -65 89
-65 208 -7 88 41 120 52 176 56 86 6 148 -9 222 -55 51 -31 64 -34 100 -29 22
4 47 12 54 18 20 16 15 52 -9 75 -46 41 -88 55 -196 61 l-106 7 42 28 c54 35
57 72 11 111 -59 50 -247 126 -311 126 -9 0 -22 -9 -28 -19z"/>
<path d="M10450 2195 c-13 -14 -60 -50 -106 -80 -117 -79 -184 -158 -246 -291
-25 -54 -32 -83 -36 -158 -4 -79 -2 -98 18 -144 41 -96 111 -130 197 -97 84
32 165 127 187 219 7 28 7 28 27 10 35 -31 84 -23 128 20 69 67 152 256 131
296 -21 38 -70 28 -70 -15 0 -15 -58 -95 -68 -95 -5 0 -33 81 -62 180 -30 99
-59 180 -65 180 -6 0 -22 -11 -35 -25z m-70 -272 c41 -139 37 -199 -18 -264
-52 -62 -91 -56 -124 19 -28 64 -28 153 0 208 19 37 95 114 112 114 4 0 17
-35 30 -77z"/>
<path d="M4515 2120 c-3 -5 -26 -22 -51 -36 -39 -23 -49 -25 -71 -15 -23 11
-29 9 -52 -13 -25 -25 -25 -26 -6 -41 20 -15 20 -16 -5 -33 -99 -69 -220 -164
-243 -191 -49 -58 -29 -131 47 -176 53 -31 158 -55 247 -55 72 0 79 6 79 70 0
25 -1 25 -79 25 -140 0 -135 28 22 145 l109 80 49 -41 c27 -22 52 -45 55 -50
6 -11 63 27 71 47 3 8 -15 32 -42 57 l-48 43 63 57 c34 32 60 60 58 62 -4 4
-187 75 -193 75 -2 0 -7 -4 -10 -10z"/>
<path d="M6266 2102 c-7 -11 52 -184 69 -201 9 -9 32 -14 60 -13 75 3 119 -14
180 -70 105 -96 138 -192 93 -278 -26 -50 -39 -58 -62 -35 -11 11 -16 34 -16
75 0 70 -12 105 -48 143 -34 37 -76 58 -113 59 -71 2 -62 -46 31 -186 125
-186 359 -425 438 -445 20 -5 66 -6 102 -3 54 6 65 10 62 24 -1 10 -30 64 -64
120 -104 175 -180 347 -278 628 l-58 165 -103 -3 c-67 -2 -133 2 -184 12 -92
18 -102 19 -109 8z"/>
<path d="M7824 1970 c-57 -181 -131 -362 -216 -528 -43 -84 -78 -155 -78 -158
0 -2 54 -4 120 -4 85 0 129 4 148 14 95 49 342 383 342 462 0 22 -4 24 -49 24
-39 0 -56 -6 -82 -27 -46 -39 -79 -116 -79 -185 0 -65 -10 -77 -46 -53 -29 19
-54 71 -54 112 0 40 42 124 85 171 54 60 114 86 197 84 57 -1 69 2 78 18 15
29 60 156 60 171 0 11 -36 14 -195 14 l-195 0 -36 -115z"/>
<path d="M9678 1939 c-81 -85 -106 -135 -188 -379 -35 -102 -66 -192 -70 -200
-6 -9 -31 33 -82 135 -41 83 -80 166 -88 185 -22 59 -29 62 -61 39 -16 -11
-57 -32 -91 -46 -107 -43 -172 -80 -257 -143 -178 -134 -243 -314 -137 -379
18 -12 47 -21 64 -21 44 0 111 29 124 53 11 22 11 22 -57 70 -42 30 -49 62
-24 114 24 49 120 135 184 164 72 33 70 38 67 -138 -3 -191 -21 -303 -60 -386
-53 -113 -109 -159 -212 -173 -65 -9 -99 -36 -107 -88 -7 -47 4 -56 75 -56 72
0 147 37 226 110 96 90 143 191 166 355 6 50 15 108 19 130 l7 40 31 -60 c17
-33 54 -118 83 -190 28 -71 55 -133 59 -138 19 -20 40 26 131 278 100 276 149
399 153 385 11 -30 27 -171 38 -331 7 -90 14 -165 15 -167 1 -2 33 10 71 26
37 17 109 47 158 67 50 20 106 47 126 60 32 20 35 27 31 59 -2 20 -8 38 -12
41 -4 3 -42 -11 -85 -31 -42 -19 -79 -33 -82 -31 -3 3 -9 23 -13 44 -12 49
-88 541 -95 616 -8 77 -23 75 -107 -14z"/>
<path d="M4763 1675 c-114 -32 -196 -81 -244 -147 -57 -80 -33 -182 57 -234
80 -47 155 -64 272 -63 154 2 166 6 170 52 l3 37 -98 1 c-54 0 -116 6 -138 13
-66 19 -101 91 -64 130 6 6 40 -1 91 -18 141 -49 283 -46 343 7 73 65 10 170
-129 213 -74 23 -200 27 -263 9z m249 -93 c14 -14 -8 -51 -38 -62 -27 -11
-164 7 -164 20 0 4 26 19 58 34 58 27 122 30 144 8z"/>
<path d="M5370 1450 c-128 -25 -162 -100 -115 -252 31 -101 30 -122 -7 -126
-34 -4 -62 26 -87 92 -21 57 -31 62 -89 46 -65 -17 -76 -86 -24 -144 23 -25
117 -70 176 -85 87 -21 189 11 226 72 27 43 25 61 -11 172 -17 52 -29 102 -25
110 3 8 17 20 30 26 39 18 79 -4 108 -57 14 -27 30 -44 41 -44 27 0 87 28 87
40 0 22 -30 68 -60 94 -49 41 -179 70 -250 56z"/>
<path d="M7454 1206 c-61 -61 -38 -126 45 -126 36 0 49 6 77 34 62 62 37 126
-49 126 -31 0 -46 -7 -73 -34z"/>
<path d="M5805 1201 c-169 -48 -285 -167 -285 -293 0 -44 29 -82 83 -110 53
-28 182 -31 240 -5 l37 16 0 -30 c0 -46 15 -66 65 -85 41 -15 55 -16 128 -5
45 7 109 23 142 36 52 19 60 26 57 46 -5 47 -8 48 -58 33 -26 -8 -61 -14 -77
-14 -34 0 -39 -10 59 117 63 80 144 206 144 222 0 5 -26 15 -57 21 -32 7 -96
25 -142 41 -71 24 -99 29 -180 28 -59 0 -119 -7 -156 -18z m256 -83 c22 -6 39
-14 39 -17 0 -3 -30 -45 -65 -93 -71 -96 -101 -115 -191 -125 -96 -10 -120 33
-65 119 66 104 175 149 282 116z"/>
<path d="M8211 1119 c-13 -5 -65 -17 -115 -25 -117 -20 -165 -37 -251 -87
-139 -81 -233 -209 -243 -332 -8 -104 43 -175 125 -175 51 0 130 35 193 84
l57 45 16 -33 c38 -81 180 -39 320 94 l68 65 -21 34 -21 33 -54 -51 c-54 -52
-96 -67 -90 -33 2 9 16 85 30 167 15 83 30 167 35 188 9 41 0 46 -49 26z
m-181 -251 c-33 -107 -48 -131 -114 -179 -49 -36 -92 -38 -107 -5 -23 51 31
199 91 249 39 33 150 64 158 45 2 -4 -11 -54 -28 -110z"/>
<path d="M6515 1059 c-155 -29 -145 -24 -145 -65 0 -36 1 -36 33 -30 94 19
107 19 107 2 0 -18 -151 -244 -203 -305 -37 -44 -29 -48 95 -57 l94 -7 66 100
c37 55 85 116 107 136 54 49 135 89 172 85 l30 -3 -80 -135 c-45 -74 -84 -150
-87 -168 -20 -102 169 -125 344 -42 34 16 62 31 62 33 0 10 -22 67 -26 67 -3
0 -31 -11 -64 -25 -65 -27 -90 -31 -90 -14 0 6 34 71 76 145 87 152 101 207
66 242 -48 48 -160 35 -295 -33 -38 -19 -70 -35 -72 -35 -2 0 0 14 5 31 16 55
-17 100 -72 98 -13 -1 -68 -9 -123 -20z"/>
<path d="M7362 994 c-51 -14 -117 -34 -147 -45 -52 -19 -55 -22 -55 -55 0 -39
5 -40 74 -19 27 8 53 15 58 15 17 0 6 -33 -52 -151 -68 -137 -77 -191 -39
-225 27 -24 104 -24 176 0 49 16 203 108 203 121 0 10 -30 65 -36 65 -3 0 -20
-11 -37 -24 -42 -31 -97 -59 -104 -52 -3 3 16 61 42 128 38 96 49 136 49 182
1 85 -12 91 -132 60z"/>
</g>
</svg>
